<svg width="20" height="20" viewBox="0 0 20 20" fill="none" xmlns="http://www.w3.org/2000/svg">
<path d="M3.25048 0.419689C7.25719 -0.139896 11.3142 -0.139896 15.321 0.419689C17.1514 0.676092 18.4552 2.32835 18.5638 4.24215C18.2454 4.12792 17.9154 4.05526 17.581 4.02574C14.9125 3.7872 12.2303 3.7872 9.5619 4.02574C7.31619 4.22676 5.71429 6.27183 5.71429 8.57331V12.9691C5.71339 13.814 5.92931 14.6427 6.33821 15.3637C6.74711 16.0848 7.33308 16.6701 8.03143 17.0551L5.50476 19.775C5.40487 19.8825 5.27765 19.9556 5.13918 19.9853C5.0007 20.0149 4.85718 19.9997 4.72674 19.9415C4.5963 19.8833 4.48479 19.7848 4.40629 19.6585C4.3278 19.5321 4.28584 19.3835 4.28571 19.2315V15.0983C3.94019 15.0587 3.59509 15.0149 3.25048 14.967C1.3381 14.6983 0 12.9065 0 10.885V4.50163C0 2.48117 1.3381 0.687374 3.25048 0.419689Z" fill="black"/>
<path d="M13.5714 5.38571C12.261 5.38571 10.9629 5.44417 9.68001 5.55904C8.21334 5.69031 7.14287 7.02976 7.14287 8.57434V12.9691C7.14287 14.5147 8.21715 15.8552 9.68573 15.9844C10.8695 16.089 12.0667 16.1454 13.2743 16.1536L15.9238 19.0058C16.0237 19.1133 16.1509 19.1864 16.2894 19.2161C16.4279 19.2457 16.5714 19.2304 16.7018 19.1723C16.8323 19.1141 16.9438 19.0156 17.0223 18.8893C17.1008 18.7629 17.1427 18.6143 17.1429 18.4623V16.0111L17.4572 15.9844C18.9257 15.8562 20 14.5147 20 12.9691V8.57331C20 7.02976 18.9286 5.69031 17.4629 5.55801C16.1685 5.44275 14.8702 5.38526 13.5714 5.38571Z" fill="black"/>
</svg>
