<svg width="22" height="21" viewBox="0 0 22 21" fill="none" xmlns="http://www.w3.org/2000/svg">
<path d="M10.928 0.0830132C12.785 0.0830132 14.642 0.0720132 16.499 0.0830132C17.1297 0.050066 17.7604 0.148038 18.3514 0.370762C18.9424 0.593487 19.4809 0.936141 19.933 1.37716C20.3851 1.81817 20.7411 2.348 20.9784 2.9333C21.2157 3.51859 21.3293 4.14667 21.312 4.77801C21.3594 8.52201 21.3627 12.2667 21.322 16.012C21.3573 16.6668 21.2522 17.3216 21.0137 17.9325C20.7752 18.5433 20.4089 19.0962 19.9393 19.5538C19.4696 20.0115 18.9076 20.3635 18.2908 20.5862C17.674 20.8089 17.0167 20.8971 16.363 20.845C12.7417 20.857 9.12068 20.857 5.50002 20.845C4.847 20.8875 4.19242 20.7907 3.57962 20.5611C2.96683 20.3315 2.40982 19.9743 1.94549 19.5132C1.48116 19.0521 1.12011 18.4976 0.886255 17.8864C0.652402 17.2752 0.551086 16.6213 0.589017 15.968C0.577017 12.2853 0.577017 8.60235 0.589017 4.91901C0.557493 4.28186 0.658839 3.64512 0.886615 3.04924C1.11439 2.45336 1.46362 1.91137 1.91211 1.45771C2.3606 1.00404 2.89855 0.648626 3.49178 0.414031C4.08501 0.179437 4.72055 0.0707968 5.35802 0.0950132C7.21102 0.0700671 9.06402 0.0949057 10.917 0.0950129C10.9236 0.0950132 10.929 0.0896406 10.929 0.0830132V0.0830132M11.045 4.65701C9.90472 4.64639 8.78688 4.97411 7.83284 5.59876C6.8788 6.22341 6.13139 7.11691 5.68514 8.16631C5.23888 9.21571 5.1138 10.3739 5.32573 11.4943C5.53766 12.6148 6.07707 13.6473 6.87575 14.4612C7.67444 15.2752 8.69654 15.834 9.81281 16.067C10.9291 16.3001 12.0894 16.197 13.147 15.7706C14.2047 15.3443 15.1122 14.6139 15.7547 13.6718C16.3973 12.7297 16.7461 11.6183 16.757 10.478C16.7725 9.71848 16.6361 8.96351 16.3559 8.25739C16.0757 7.55126 15.6573 6.9082 15.1252 6.36592C14.5932 5.82364 13.9582 5.39306 13.2576 5.09944C12.5569 4.80581 11.8047 4.65506 11.045 4.65601M18.424 4.13301C18.435 3.99309 18.4176 3.85238 18.3728 3.71937C18.328 3.58636 18.2567 3.46379 18.1633 3.35905C18.0699 3.25431 17.9562 3.16957 17.8292 3.10993C17.7021 3.05028 17.5643 3.01698 17.424 3.01201C17.2722 2.98617 17.1166 2.99325 16.9677 3.03278C16.8189 3.07231 16.6802 3.14336 16.5612 3.24112C16.4422 3.33889 16.3456 3.46108 16.278 3.59943C16.2103 3.73778 16.1731 3.88906 16.169 4.04301C16.1487 4.18813 16.1588 4.33589 16.1988 4.47688C16.2387 4.61787 16.3076 4.74898 16.401 4.86188C16.4944 4.97477 16.6104 5.06697 16.7414 5.13259C16.8724 5.19821 17.0157 5.23582 17.162 5.24301C17.3205 5.26504 17.4819 5.2526 17.6352 5.20654C17.7884 5.16048 17.9299 5.08189 18.05 4.97613C18.1701 4.87037 18.266 4.73994 18.331 4.59374C18.3961 4.44754 18.4288 4.28903 18.427 4.12901" fill="#FFFFFF"/>
<path d="M11.004 13.856C10.5552 13.8588 10.1102 13.773 9.69461 13.6035C9.27901 13.434 8.90092 13.1842 8.58202 12.8684C8.26311 12.5525 8.00966 12.1769 7.83618 11.7629C7.66269 11.349 7.57258 10.9049 7.57101 10.456C7.56248 9.77287 7.75739 9.10262 8.13093 8.53058C8.50447 7.95853 9.03976 7.51055 9.66867 7.24364C10.2976 6.97674 10.9917 6.90297 11.6626 7.03174C12.3336 7.1605 12.9511 7.48598 13.4365 7.96674C13.9219 8.4475 14.2534 9.06181 14.3886 9.7315C14.5239 10.4012 14.4568 11.096 14.196 11.7274C13.9352 12.3589 13.4924 12.8985 12.924 13.2775C12.3555 13.6566 11.6872 13.858 11.004 13.856" fill="#FFFFFF"/>
</svg>
