<svg width="20" height="20" viewBox="0 0 20 20" fill="none" xmlns="http://www.w3.org/2000/svg">
<path d="M10.643 8.06101C11.0469 7.42869 11.6078 6.91188 12.271 6.56101C12.7958 6.27576 13.3753 6.10533 13.971 6.06101C14.8105 5.98565 15.6566 6.07985 16.459 6.338C16.9551 6.49782 17.4098 6.76487 17.7911 7.1202C18.1723 7.47552 18.4707 7.91042 18.665 8.394C18.9713 9.12413 19.1454 9.90293 19.179 10.694C19.324 13.464 19.208 16.237 19.247 19.008C19.247 19.143 19.196 19.18 19.068 19.179C17.839 19.179 16.609 19.174 15.38 19.179C15.21 19.179 15.186 19.103 15.187 18.965C15.187 18.0317 15.187 17.0983 15.187 16.165C15.187 14.807 15.187 13.448 15.179 12.09C15.1837 11.6174 15.1017 11.148 14.937 10.705C14.8343 10.3992 14.6433 10.1307 14.3881 9.93352C14.1328 9.7363 13.8248 9.61919 13.503 9.597C12.995 9.5234 12.4765 9.59698 12.009 9.80901C11.7474 9.93618 11.5192 10.1231 11.3431 10.3546C11.167 10.5862 11.0477 10.8559 10.995 11.142C10.8796 11.6209 10.8146 12.1106 10.801 12.603C10.78 14.703 10.792 16.803 10.791 18.903C10.791 19.173 10.791 19.173 10.53 19.173H6.99402C6.77302 19.173 6.76801 19.173 6.76801 18.947C6.76801 14.827 6.76801 10.707 6.76801 6.58701C6.76801 6.35801 6.78101 6.346 7.00301 6.346H10.403C10.628 6.346 10.64 6.357 10.641 6.584C10.641 7.071 10.641 7.55901 10.641 8.04601" fill="#000000"/>
<path d="M0.326006 12.756C0.326006 10.702 0.326006 8.64832 0.326006 6.59499C0.326006 6.36099 0.326006 6.35999 0.555006 6.35999H4.10701C4.34101 6.35999 4.35101 6.36898 4.35101 6.60898C4.35101 10.7223 4.35101 14.8353 4.35101 18.948C4.35101 19.184 4.35101 19.186 4.12001 19.186H0.566006C0.324006 19.186 0.324005 19.186 0.324005 18.95C0.324005 16.8833 0.324005 14.8183 0.324005 12.755" fill="#000000"/>
<path d="M2.33017 6.98066e-05C2.63855 -0.0023177 2.94432 0.0565598 3.22976 0.173286C3.5152 0.290012 3.77461 0.462262 3.99295 0.680042C4.21128 0.897821 4.3842 1.15679 4.50165 1.44193C4.61911 1.72707 4.67877 2.03269 4.67717 2.34107C4.68216 2.64892 4.62528 2.95464 4.50991 3.2401C4.39455 3.52556 4.22304 3.78495 4.00556 4.0029C3.78808 4.22085 3.52906 4.39291 3.24384 4.50888C2.95863 4.62486 2.65303 4.68239 2.34517 4.67807C2.03652 4.68277 1.73005 4.62556 1.44388 4.50982C1.1577 4.39407 0.897631 4.22215 0.679027 4.00419C0.460422 3.78624 0.287719 3.52669 0.171121 3.24086C0.0545229 2.95504 -0.00360454 2.64874 0.000172979 2.34007C0.00174019 1.72167 0.247409 1.12891 0.683745 0.690699C1.12008 0.25249 1.71179 0.00428537 2.33017 6.98066e-05Z" fill="#000000"/>
</svg>
