<svg width="20" height="20" viewBox="0 0 20 20" fill="none" xmlns="http://www.w3.org/2000/svg">
<path d="M10.4995 16C13.4775 16 15.897 13.3326 16 10C15.897 6.66743 13.4775 4 10.4995 4C7.52177 4 5.10159 6.66743 5 10C5.10124 13.3326 7.52143 16 10.4995 16Z" fill="black"/>
<path d="M10.5002 2C6.35822 2 3 5.58182 3 10C3 14.4178 6.35856 18 10.5002 18C14.6418 18 18 14.4178 18 10C18 5.58182 14.6418 2 10.5002 2ZM10.4998 15.8182C7.48728 15.8182 5.04507 13.3015 5.04507 10.196C5.04507 10.1298 5.05359 10.0655 5.05564 10C5.05359 9.93455 5.04507 9.86982 5.04507 9.804C5.04507 6.69855 7.48763 4.18182 10.4998 4.18182C13.5124 4.18182 15.9543 6.69855 15.9543 9.804C15.9543 9.86982 15.9471 9.93455 15.9454 10C15.9474 10.0655 15.9543 10.1298 15.9543 10.196C15.9539 13.3015 13.5124 15.8182 10.4998 15.8182Z" fill="black"/>
<path d="M0.493805 0.168437C0.573805 -0.207962 0.732137 0.164037 0.732137 0.164037C0.732137 0.164037 0.78747 4.06003 1.14747 4.10243C1.50746 4.14483 1.23013 0.0936371 1.65613 0.0160373C2.05213 -0.0595626 1.82613 4.16683 2.18679 4.12403C2.54612 4.07843 2.60679 0.184037 2.60679 0.184037C2.60679 0.184037 2.76679 -0.187562 2.84579 0.186037C3.82178 4.79003 3.03212 6.67202 3.03212 6.67202C3.03212 6.67202 2.89879 7.06762 2.58212 7.06962C2.55246 7.06762 2.57479 18.004 2.57279 19.4744C2.57346 20.1892 0.73947 20.1672 0.74047 19.4556C0.741804 17.9852 0.77747 7.05002 0.748804 7.05082C0.431139 7.05082 0.29814 6.65562 0.29814 6.65562C0.29814 6.65562 -0.488521 4.77483 0.493805 0.168437ZM17.8733 3.73115e-05C18.286 -0.00116269 19.998 1.48003 20 6.98482C20.002 8.74522 19.2017 8.74482 19.203 9.84601C19.2043 10.9452 19.2093 19.6884 19.2093 19.6884C19.2093 19.6884 18.3313 20.4112 17.6787 19.6548L17.6667 0.156437C17.6673 0.156837 17.665 -0.000362688 17.8733 3.73115e-05Z" fill="black"/>
</svg>
