<svg width="120" height="120" viewBox="0 0 120 120" fill="none" xmlns="http://www.w3.org/2000/svg">
<circle cx="60" cy="60" r="60" fill="#00ACD8"/>
<path d="M56.2509 73.2067H55.7847C43.2007 73.2067 33 71.2486 33 68.8354V80.8562C33 83.2694 43.2007 85.2274 55.7847 85.2274C57.0266 85.2274 58.25 85.2088 59.4398 85.1715C57.0215 81.6737 55.8942 77.4441 56.2509 73.2067V73.2067Z" fill="white"/>
<path d="M76.0294 46.9459C72.2438 48.352 64.5979 49.3143 55.7847 49.3143C46.9714 49.3143 39.3256 48.352 35.5362 46.9459C33.9175 47.5464 33 48.2252 33 48.9488C33 51.3619 43.2007 53.32 55.7847 53.32C68.3686 53.32 78.5694 51.3619 78.5694 48.9488C78.5694 48.2252 77.6667 47.5464 76.0294 46.9459Z" fill="white"/>
<path d="M55.7847 34.7461C68.3649 34.7461 78.5694 32.788 78.5694 30.3749C78.5694 27.9618 68.3649 26 55.7847 26C43.2044 26 33 27.9581 33 30.3712C33 32.7843 43.2007 34.7461 55.7847 34.7461Z" fill="white"/>
<path d="M55.7847 48.0798C68.3649 48.0798 78.5694 46.1254 78.5694 43.7086V31.6878C78.5694 34.1009 68.3649 36.059 55.7847 36.059C43.2044 36.059 33 34.1009 33 31.6878V43.7086C33 46.1254 43.2007 48.0798 55.7847 48.0798Z" fill="white"/>
<path d="M57.2915 68.47C57.3661 68.2649 57.4481 68.0635 57.5302 67.8658C56.9508 67.8658 56.369 67.8658 55.7847 67.8658C46.9677 67.8658 39.3218 66.9035 35.5362 65.4974C33.9175 66.0979 33 66.7804 33 67.5003C33 69.9171 43.2007 71.8752 55.7847 71.8752H56.4075C56.5931 70.7146 56.8891 69.5743 57.2915 68.47V68.47Z" fill="white"/>
<path d="M78.5694 56.8743V50.2616C78.5694 52.6784 68.3649 54.6328 55.7847 54.6328C43.2044 54.6328 33 52.6784 33 50.2616V62.2861C33 64.6992 43.2007 66.6573 55.7847 66.6573C56.5604 66.6573 57.3263 66.6499 58.0822 66.6349C59.9051 62.9439 62.9174 59.9739 66.6338 58.2033C70.3502 56.4327 74.5545 55.9646 78.5694 56.8743Z" fill="white"/>
<path d="M79.9421 59.8618C76.9969 58.7895 73.7998 58.6146 70.7552 59.3593C67.7106 60.104 64.9552 61.7348 62.8374 64.0455C60.7196 66.3562 59.3346 69.243 58.8575 72.3408C58.3804 75.4387 58.8327 78.6085 60.1571 81.4493C61.4815 84.2901 63.6187 86.6744 66.2982 88.3006C68.9777 89.9268 72.0792 90.7219 75.2106 90.5854C78.342 90.4489 81.3626 89.3868 83.8904 87.5335C86.4182 85.6803 88.3397 83.119 89.4118 80.1737C90.8494 76.2245 90.6594 71.8658 88.8835 68.0567C87.1076 64.2475 83.8913 61.2997 79.9421 59.8618V59.8618ZM83.9814 78.197C83.3004 80.0689 82.0795 81.6967 80.4733 82.8746C78.867 84.0526 76.9475 84.7277 74.9575 84.8146C72.9675 84.9015 70.9964 84.3963 69.2936 83.3629C67.5907 82.3295 66.2326 80.8143 65.391 79.0089C64.5494 77.2036 64.2621 75.1892 64.5654 73.2205C64.8687 71.2519 65.749 69.4174 67.0951 67.9491C68.4411 66.4808 70.1923 65.4447 72.1272 64.9718C74.0622 64.4989 76.0939 64.6104 77.9654 65.2923C80.4741 66.2063 82.5171 68.0792 83.6452 70.4991C84.7733 72.919 84.8943 75.6879 83.9814 78.197V78.197Z" fill="white"/>
<path d="M95.8009 88.2373L85.4995 79.5994C85.4473 79.5546 85.3876 79.5136 85.3317 79.4725C84.6081 81.8931 82.9036 83.7505 80.7852 84.3622C80.899 84.4965 81.0238 84.6213 81.1581 84.7351L91.4707 93.388C91.8089 93.6723 92.1998 93.8872 92.6211 94.0205C93.0424 94.1538 93.4857 94.2027 93.9259 94.1646C94.3661 94.1266 94.7945 94.0021 95.1866 93.7985C95.5787 93.5948 95.9268 93.3159 96.2111 92.9777C96.4955 92.6395 96.7104 92.2486 96.8437 91.8274C96.9769 91.4061 97.0259 90.9627 96.9878 90.5226C96.9497 90.0824 96.8253 89.654 96.6216 89.2619C96.418 88.8698 96.1391 88.5216 95.8009 88.2373V88.2373Z" fill="white"/>
</svg>
