<svg width="120" height="120" viewBox="0 0 120 120" fill="none" xmlns="http://www.w3.org/2000/svg">
<circle cx="60" cy="60" r="60" fill="#00ACD8"/>
<g clip-path="url(#clip0_4854:3048)">
<path fill-rule="evenodd" clip-rule="evenodd" d="M52.1154 47.0384H68.1154V39.3584C68.1224 39.0232 67.9976 38.6987 67.7678 38.4545C67.538 38.2104 67.2216 38.0661 66.8866 38.0528H53.3698C53.2017 38.0561 53.0359 38.0925 52.8819 38.16C52.7279 38.2274 52.5886 38.3245 52.4721 38.4457C52.3557 38.567 52.2642 38.71 52.203 38.8666C52.1418 39.0232 52.112 39.1903 52.1154 39.3584V47.0384ZM57.6194 30.68V32.7536H62.6114V30.68C62.4825 30.1144 62.1653 29.6094 61.7119 29.2476C61.2584 28.8859 60.6955 28.6888 60.1154 28.6888C59.5353 28.6888 58.9724 28.8859 58.519 29.2476C58.0655 29.6094 57.7483 30.1144 57.6194 30.68V30.68ZM47.1234 49.6496V39.256C47.1011 37.6957 47.6473 36.1806 48.6601 34.9935C49.6729 33.8064 51.0831 33.0284 52.6274 32.8048V30.68C52.6274 29.695 52.8214 28.7196 53.1984 27.8096C53.5753 26.8995 54.1278 26.0726 54.8244 25.3761C55.5209 24.6796 56.3477 24.1271 57.2578 23.7502C58.1678 23.3732 59.1432 23.1792 60.1282 23.1792C61.1132 23.1792 62.0886 23.3732 62.9986 23.7502C63.9087 24.1271 64.7356 24.6796 65.4321 25.3761C66.1286 26.0726 66.6811 26.8995 67.0581 27.8096C67.435 28.7196 67.629 29.695 67.629 30.68V32.8048C69.1733 33.0284 70.5835 33.8064 71.5963 34.9935C72.6091 36.1806 73.1553 37.6957 73.133 39.256V49.6496C73.133 50.3286 72.8633 50.9797 72.3832 51.4598C71.9031 51.9399 71.252 52.2096 70.573 52.2096H49.6322C48.9622 52.1962 48.3241 51.9206 47.855 51.4419C47.386 50.9633 47.1233 50.3198 47.1234 49.6496V49.6496ZM87.0082 66.1616V52.7216L65.2738 66.776C63.7042 67.7962 61.8723 68.3393 60.0002 68.3393C58.1281 68.3393 56.2963 67.7962 54.7266 66.776L33.1202 52.7216V79.1664C33.1202 80.5243 33.6596 81.8266 34.6198 82.7868C35.58 83.747 36.8823 84.2864 38.2402 84.2864H81.9906C83.3485 84.2864 84.6508 83.747 85.611 82.7868C86.5712 81.8266 87.1106 80.5243 87.1106 79.1664C87.0252 78.7915 87.0253 78.4022 87.1109 78.0273C87.1966 77.6524 87.3656 77.3017 87.6054 77.0011C87.8452 76.7005 88.1496 76.4578 88.4961 76.291C88.8425 76.1242 89.2221 76.0376 89.6066 76.0376C89.9911 76.0376 90.3707 76.1242 90.7172 76.291C91.0636 76.4578 91.3681 76.7005 91.6079 77.0011C91.8476 77.3017 92.0166 77.6524 92.1023 78.0273C92.1879 78.4022 92.1881 78.7915 92.1026 79.1664C92.1229 80.5133 91.8773 81.851 91.3798 83.1028C90.8823 84.3546 90.1426 85.4959 89.2033 86.4614C88.264 87.4269 87.1434 88.1976 85.9057 88.7293C84.668 89.261 83.3376 89.5433 81.9906 89.56H38.0098C35.3073 89.4995 32.7384 88.3729 30.8633 86.4258C28.9882 84.4788 27.959 81.8692 28.0002 79.1664V48.0368C27.9848 46.3103 28.3977 44.6069 29.2018 43.079C30.006 41.5511 31.1763 40.2464 32.6082 39.2816L39.4178 34.7504C39.9849 34.411 40.6613 34.304 41.3055 34.452C41.9496 34.5999 42.5116 34.9912 42.8738 35.544C43.0629 35.8284 43.1932 36.1478 43.257 36.4834C43.3208 36.819 43.3168 37.1639 43.2452 37.4979C43.1737 37.8319 43.036 38.1482 42.8403 38.4281C42.6446 38.7081 42.3949 38.946 42.1058 39.128L35.2962 43.6592C34.2123 44.3636 33.435 45.4519 33.1202 46.7056L57.3122 62.3472C58.0959 62.8604 59.0123 63.1338 59.949 63.1338C60.8858 63.1338 61.8022 62.8604 62.5858 62.3472L86.8802 46.7056C86.5648 45.4661 85.8097 44.3834 84.7554 43.6592L77.869 39.128C77.582 38.944 77.3346 38.7045 77.1414 38.4236C76.9482 38.1427 76.8131 37.826 76.7439 37.4922C76.6748 37.1583 76.673 36.814 76.7387 36.4795C76.8044 36.1449 76.9363 35.8269 77.1266 35.544C77.4888 34.9912 78.0508 34.5999 78.695 34.452C79.3391 34.304 80.0155 34.411 80.5826 34.7504L87.3922 39.2816C88.8277 40.2488 90.0004 41.5576 90.8047 43.0903C91.6091 44.623 92.0199 46.3316 92.0002 48.0624V66.1616C92.0857 66.5365 92.0856 66.9258 91.9999 67.3007C91.9142 67.6756 91.7452 68.0263 91.5054 68.3269C91.2657 68.6275 90.9612 68.8702 90.6148 69.037C90.2683 69.2038 89.8887 69.2904 89.5042 69.2904C89.1197 69.2904 88.7401 69.2038 88.3937 69.037C88.0472 68.8702 87.7428 68.6275 87.503 68.3269C87.2632 68.0263 87.0942 67.6756 87.0085 67.3007C86.9229 66.9258 86.9228 66.5365 87.0082 66.1616V66.1616Z" fill="white"/>
</g>
<defs>
<clipPath id="clip0_4854:3048">
<rect width="64" height="66.56" fill="white" transform="translate(28 23)"/>
</clipPath>
</defs>
</svg>
