<svg width="120" height="120" viewBox="0 0 120 120" fill="none" xmlns="http://www.w3.org/2000/svg">
<circle cx="60" cy="60" r="60" fill="#00ACD8"/>
<path d="M72.6684 93.8584C65.1807 94.4485 59.4092 90.5013 54.2531 85.7338C47.0856 79.1132 40.5262 71.8629 35.5931 63.3641C31.1422 55.6929 28.3968 47.4387 31.0271 38.5765C32.1065 34.9604 34.4993 31.6608 36.6654 28.4693C38.1046 26.3572 40.573 26.7602 42.2209 28.1814C45.8018 31.2741 49.2186 34.5517 52.4576 38.0008C55.5556 41.2895 54.5122 46.2477 50.4355 48.9679C45.4988 52.2674 44.9483 55.9771 48.7408 60.7087C51.7032 64.4076 54.6885 68.0861 57.6966 71.7442C61.5178 76.3966 66.3105 77.3645 70.6786 73.4965C77.1553 67.7754 79.7892 70.0099 83.8443 75.0293C85.7837 77.4329 87.0538 80.3726 88.9645 82.8085C91.314 85.8058 89.1839 87.5401 87.3309 89.0513C83.8227 91.937 77.4108 93.8584 72.6684 93.8584Z" fill="white"/>
</svg>
