<svg width="366" height="338" viewBox="0 0 366 338" fill="none" xmlns="http://www.w3.org/2000/svg">
<path d="M87.4597 204.78H112.96C116.199 204.769 119.303 203.477 121.592 201.186C123.882 198.894 125.172 195.789 125.18 192.55V91.4699C125.172 88.2296 123.882 85.1239 121.593 82.8308C119.304 80.5376 116.2 79.2431 112.96 79.2299H87.4597C84.2159 79.2379 81.1072 80.5301 78.8135 82.8238C76.5197 85.1176 75.2276 88.2261 75.2197 91.4699V192.53C75.2224 195.776 76.5124 198.889 78.807 201.186C81.1016 203.482 84.2134 204.775 87.4597 204.78V204.78Z" fill="#00ACD7"/>
<path d="M154.66 204.78H163.2C163.541 204.779 163.877 204.695 164.177 204.534C164.478 204.373 164.735 204.14 164.924 203.857C165.114 203.573 165.231 203.247 165.265 202.908C165.299 202.568 165.249 202.225 165.12 201.91C158.296 184.571 157.086 165.528 161.661 147.465C166.236 129.402 176.365 113.23 190.62 101.23C191.174 100.761 191.619 100.178 191.924 99.5199C192.23 98.8619 192.389 98.1455 192.39 97.42V31.18C192.379 27.9397 191.087 24.8351 188.796 22.5438C186.505 20.2525 183.4 18.9606 180.16 18.95H154.66C151.419 18.958 148.312 20.249 146.021 22.5409C143.729 24.8327 142.438 27.9389 142.43 31.18V192.53C142.432 195.775 143.721 198.886 146.013 201.182C148.306 203.478 151.415 204.772 154.66 204.78V204.78Z" fill="#191F6C"/>
<path d="M211.26 88.26C222.674 83.119 235.051 80.4636 247.57 80.4699C251.156 80.4678 254.739 80.6782 258.3 81.0999C258.462 81.1214 258.626 81.108 258.782 81.0604C258.938 81.0128 259.083 80.9323 259.205 80.8242C259.327 80.7161 259.425 80.583 259.491 80.4339C259.558 80.2848 259.591 80.1233 259.59 79.9601V61.88C259.579 58.6396 258.288 55.535 255.996 53.2437C253.705 50.9525 250.6 49.6605 247.36 49.65H221.87C218.628 49.6579 215.521 50.9486 213.227 53.2402C210.934 55.5318 209.64 58.6379 209.63 61.88V87.2101C209.637 87.399 209.691 87.5832 209.787 87.7464C209.882 87.9096 210.017 88.0467 210.178 88.1456C210.339 88.2445 210.522 88.3021 210.711 88.3133C210.899 88.3246 211.088 88.2891 211.26 88.2101V88.26Z" fill="#00ACD7"/>
<path d="M221.87 204.78H247.36C250.601 204.772 253.707 203.481 255.999 201.189C258.291 198.897 259.582 195.791 259.59 192.55V122.08C259.59 121.695 259.458 121.321 259.216 121.021C258.974 120.721 258.637 120.512 258.26 120.43C254.753 119.679 251.176 119.301 247.59 119.3C237.973 119.287 228.558 122.066 220.49 127.3C216.611 129.808 213.095 132.836 210.04 136.3C209.776 136.609 209.63 137.003 209.63 137.41V192.41C209.64 195.652 210.934 198.758 213.227 201.05C215.521 203.341 218.628 204.632 221.87 204.64V204.78Z" fill="#00ACD7"/>
<path d="M180.69 204.78C181.69 206.78 182.86 208.66 184.09 210.56C194.451 226.468 210.394 237.919 228.777 242.655C247.161 247.392 266.652 245.071 283.41 236.15L303.65 267.32L300.22 269.55C298.34 270.777 297.022 272.699 296.555 274.896C296.088 277.092 296.511 279.384 297.73 281.27L331.9 333.9C333.127 335.781 335.049 337.098 337.246 337.565C339.442 338.032 341.734 337.609 343.62 336.39L361.32 324.9C363.202 323.675 364.522 321.753 364.991 319.556C365.459 317.36 365.038 315.067 363.82 313.18L329.65 260.54C328.419 258.661 326.496 257.345 324.298 256.878C322.101 256.412 319.808 256.833 317.92 258.05L314.5 260.28L294.27 229.11C309.404 217.289 319.491 200.166 322.494 181.199C325.498 162.232 321.196 142.831 310.455 126.912C299.715 110.993 283.336 99.7401 264.623 95.4246C245.911 91.1092 226.258 94.0523 209.63 103.66C208.54 104.3 207.46 104.96 206.4 105.66C201.287 108.992 196.587 112.919 192.4 117.36C181.598 128.905 174.665 143.532 172.568 159.204C170.471 174.875 173.314 190.81 180.7 204.79L180.69 204.78ZM209.63 119.19C210.863 118.25 212.137 117.357 213.45 116.51C227.207 107.605 243.909 104.455 259.964 107.736C276.019 111.018 290.146 120.469 299.305 134.057C308.465 147.645 311.927 164.285 308.945 180.399C305.964 196.513 296.778 210.813 283.363 220.225C269.948 229.636 253.375 233.407 237.209 230.727C221.042 228.047 206.573 219.13 196.913 205.893C187.253 192.655 183.173 176.156 185.551 159.942C187.929 143.728 196.575 129.095 209.63 119.19V119.19Z" fill="#00ACD7"/>
<path d="M57.9799 197.78V12.2299C57.9693 8.9896 56.6774 5.88501 54.3861 3.59372C52.0948 1.30243 48.9901 0.0105159 45.7498 -3.05176e-05H20.2498C17.0085 0.0105007 13.9029 1.3021 11.61 3.59311C9.31711 5.88412 8.02295 8.98868 8.00977 12.2299V197.78H0.00976562V204.78H66.0098V197.78H57.9799ZM16.6898 47.05H30.1798V60.55H16.6898V47.05ZM16.6898 65.05H30.1798V78.55H16.6898V65.05ZM16.6898 83.05H30.1798V96.55H16.6898V83.05ZM16.6898 101.05H30.1798V114.55H16.6898V101.05ZM16.6898 119.05H30.1798V132.55H16.6898V119.05ZM16.6898 150.55V137.05H30.1798V150.55H16.6898ZM41.9998 196.8H23.9998V173.8H41.9998V196.8ZM49.2998 150.55H35.8098V137.05H49.2998V150.55ZM49.2998 132.55H35.8098V119.05H49.2998V132.55ZM49.2998 114.55H35.8098V101.05H49.2998V114.55ZM49.2998 96.55H35.8098V83.05H49.2998V96.55ZM49.2998 78.55H35.8098V65.05H49.2998V78.55ZM49.2998 60.55H35.8098V47.05H49.2998V60.55Z" fill="#191F6C"/>
</svg>
