<svg width="12" height="9" viewBox="0 0 12 9" fill="none" xmlns="http://www.w3.org/2000/svg">
<path d="M4 6.6L9.9 0.7C10.0833 0.516666 10.3167 0.425 10.6 0.425C10.8833 0.425 11.1167 0.516666 11.3 0.7C11.4833 0.883333 11.575 1.11667 11.575 1.4C11.575 1.68333 11.4833 1.91667 11.3 2.1L4.7 8.7C4.5 8.9 4.26667 9 4 9C3.73334 9 3.5 8.9 3.3 8.7L0.700003 6.1C0.516669 5.91667 0.425003 5.68333 0.425003 5.4C0.425003 5.11667 0.516669 4.88333 0.700003 4.7C0.883336 4.51667 1.11667 4.425 1.4 4.425C1.68334 4.425 1.91667 4.51667 2.1 4.7L4 6.6Z" fill="#43FFB1"/>
</svg>
