<svg width="1342" height="1000" viewBox="0 0 1342 1000" fill="none" xmlns="http://www.w3.org/2000/svg">
<g clip-path="url(#clip0_1429_13409)">
<path d="M1341.98 147.697L1110.15 599.673H968.699L1200.53 147.697H1341.98Z" fill="#2B2BCC"/>
<path d="M433.266 16.4129L164.166 541.004H0L269.081 16.4129H433.266Z" fill="#2B2BCC"/>
<path d="M447.91 137.119L178.81 661.71H140.432L409.532 137.119H447.91Z" fill="#2B2BCC"/>
<path d="M1299.67 530.012L1193.04 737.883H1127.99L1234.62 530.012H1299.67Z" fill="#2828AF"/>
<path d="M928.753 606.418C981.993 553.178 981.993 466.86 928.753 413.62C875.513 360.38 789.195 360.381 735.955 413.62C682.716 466.86 682.716 553.178 735.955 606.418C789.195 659.657 875.513 659.657 928.753 606.418Z" fill="#FF5284"/>
<path d="M953.056 630.72C1019.72 564.059 1019.72 455.979 953.056 389.317C886.394 322.656 778.314 322.656 711.653 389.317C644.991 455.979 644.991 564.059 711.653 630.72C778.314 697.382 886.394 697.382 953.056 630.72Z" stroke="white" stroke-width="1.3" stroke-miterlimit="10"/>
<path d="M638.013 654.951C646.781 633.784 636.729 609.517 615.562 600.749C594.395 591.982 570.128 602.033 561.361 623.2C552.593 644.367 562.645 668.634 583.812 677.402C604.979 686.169 629.246 676.118 638.013 654.951Z" fill="#FF5284"/>
<path d="M647.664 658.948C658.64 632.451 646.057 602.074 619.56 591.098C593.063 580.123 562.685 592.706 551.71 619.203C540.734 645.7 553.317 676.077 579.814 687.053C606.311 698.028 636.689 685.446 647.664 658.948Z" stroke="white" stroke-width="0.75" stroke-miterlimit="10"/>
<path d="M346.101 94.1106C369.012 94.1106 387.585 75.5376 387.585 52.6266C387.585 29.7157 369.012 11.1427 346.101 11.1427C323.19 11.1427 304.617 29.7157 304.617 52.6266C304.617 75.5376 323.19 94.1106 346.101 94.1106Z" fill="#FF5284"/>
<path d="M346.101 104.557C374.781 104.557 398.031 81.3069 398.031 52.6266C398.031 23.9464 374.781 0.696419 346.101 0.696419C317.421 0.696419 294.171 23.9464 294.171 52.6266C294.171 81.3069 317.421 104.557 346.101 104.557Z" stroke="white" stroke-width="0.75" stroke-miterlimit="10"/>
<path d="M1260.95 346.233L1029.1 798.227H978.053L1209.9 346.233H1260.95Z" fill="#FFE210"/>
<path d="M1272.36 194.959L1010.24 705.961H1003.05L1265.17 194.959H1272.36Z" fill="#FFE210"/>
<path d="M567.92 488.98L305.803 1000H298.594L560.711 488.98H567.92Z" fill="#FF5284"/>
<path d="M687.082 339.325L424.966 850.345H417.757L679.873 339.325H687.082Z" fill="#FFE210"/>
<path d="M910.858 287.225L648.742 798.227H641.552L903.668 287.225H910.858Z" fill="#FFE210"/>
<path d="M1286.96 122.927L1024.85 633.948H1023.72L1285.83 122.927H1286.96Z" fill="#FFE210"/>
<path d="M846.581 378.437L584.464 889.439H583.335L845.452 378.437H846.581Z" fill="#FFE210"/>
<path d="M1042.48 266.596L780.365 777.617H779.235L1041.35 266.596H1042.48Z" fill="#FFE210"/>
<path d="M1106.8 175.29L844.68 686.311H843.551L1105.67 175.29H1106.8Z" fill="#FFE210"/>
<path d="M1238.42 175.29L976.303 686.311H975.174L1237.29 175.29H1238.42Z" fill="#FF5284"/>
<path d="M1105.59 389.317L873.76 841.292H732.312L964.163 389.317H1105.59Z" fill="#FFE210"/>
<path d="M1169.83 293.945L1044.91 537.503H968.699L1093.62 293.945H1169.83Z" fill="#FF5284"/>
<path d="M772.986 690.997L706.977 819.665H666.717L732.707 690.997H772.986Z" fill="#FF5284"/>
<path d="M1033.07 597.753L908.129 841.292H904.327L1029.25 597.753H1033.07Z" fill="white"/>
<path d="M1106.8 217.565L981.874 461.104H978.053L1102.98 217.565H1106.8Z" fill="white"/>
<path d="M161.927 156.939L37.0042 400.478H33.1833L158.106 156.939H161.927Z" fill="#2B2BCC"/>
<path d="M534.943 25.918L410.021 269.476H406.219L531.141 25.918H534.943Z" fill="#2B2BCC"/>
<path d="M927.347 587.476L802.424 831.034H776.205L901.127 587.476H927.347Z" fill="#FF881D"/>
<path d="M966.365 328.691L841.424 572.23H815.204L940.127 328.691H966.365Z" fill="#FF881D"/>
<path d="M1270.64 408.233L1145.72 651.772H1119.5L1244.42 408.233H1270.64Z" fill="#FF881D"/>
<path d="M1000.92 182.236L769.072 634.23H751.454L983.305 182.236H1000.92Z" fill="#FFE210"/>
<path d="M1190.89 537.842L959.043 989.817H956.973L1188.82 537.842H1190.89Z" fill="#FFE210"/>
<path d="M1204.01 537.842L972.162 989.817H970.092L1201.92 537.842H1204.01Z" fill="#FFE210"/>
<path d="M1217.11 537.842L985.281 989.817H983.211L1215.04 537.842H1217.11Z" fill="#FFE210"/>
<path d="M1230.23 537.842L998.4 989.817H996.311L1228.16 537.842H1230.23Z" fill="#FFE210"/>
</g>
<defs>
<clipPath id="clip0_1429_13409">
<rect width="1341.98" height="1000" fill="white"/>
</clipPath>
</defs>
</svg>
