<svg width="120" height="120" viewBox="0 0 120 120" fill="none" xmlns="http://www.w3.org/2000/svg">
<circle cx="60" cy="60" r="60" fill="#00ACD8"/>
<path d="M28.0762 38H91.9232C90.2905 39.4269 89.1976 40.4187 88.0709 41.3733C79.2699 48.7947 70.4857 56.216 61.6037 63.5159C60.8852 64.1029 59.0332 64.3829 58.453 63.9038C51.8784 58.4761 45.4522 52.8697 38.9787 47.3172C35.5413 44.3722 32.0904 41.4273 28.0762 38Z" fill="white"/>
<path d="M52.1582 62.7839L59.9169 69.4226C61.8667 67.8034 64.1335 66.2449 65.9889 64.2816C67.3719 62.8075 68.1209 63.0504 69.4837 64.1939C76.7363 70.2828 84.0699 76.2671 91.8556 82.6798H28.167L52.1582 62.7839Z" fill="white"/>
<path d="M94.9999 39.6158V81.0674L70.3037 60.6823L94.9999 39.6158Z" fill="white"/>
<path d="M25 79.8361V39.8317L49.7333 60.6182L25.6814 80.4838L25 79.8361Z" fill="white"/>
</svg>
