<svg width="20" height="20" viewBox="0 0 20 20" fill="none" xmlns="http://www.w3.org/2000/svg">
<path d="M9.62362 18C9.07888 17.2421 8.55042 16.5284 8.04398 15.7991C6.79654 13.998 5.59266 12.1679 4.71285 10.1551C4.43234 9.51376 4.17481 8.83772 4.06423 8.15263C3.82489 6.68629 4.26767 5.35372 5.17142 4.19255C7.64811 1.01134 12.5297 1.34746 14.5387 4.83955C15.3525 6.25305 15.5157 7.74367 14.9255 9.29667C14.3424 10.8311 13.5579 12.2627 12.6623 13.6291C11.7413 15.0345 10.7576 16.3989 9.80073 17.7805C9.75813 17.8448 9.70452 17.901 9.62362 18ZM9.65234 4.90049C9.114 4.8982 8.58702 5.05436 8.13772 5.3493C7.68841 5.64424 7.33688 6.06478 7.12736 6.55799C6.91784 7.0512 6.85969 7.59503 6.96025 8.12103C7.0608 8.64704 7.31556 9.1317 7.69245 9.51402C8.06935 9.89633 8.55153 10.1592 9.07832 10.2696C9.6051 10.3799 10.1529 10.3328 10.6529 10.1342C11.1528 9.93559 11.5825 9.59432 11.8878 9.15335C12.1932 8.71239 12.3605 8.19144 12.3688 7.65607C12.3866 6.13307 11.1894 4.9181 9.65234 4.90049V4.90049Z" fill="#666666"/>
</svg>
