<svg width="120" height="120" viewBox="0 0 120 120" fill="none" xmlns="http://www.w3.org/2000/svg">
<circle cx="60" cy="60" r="60" fill="#00ACD8"/>
<path fill-rule="evenodd" clip-rule="evenodd" d="M84.98 37.0866C84.0953 36.446 83.0289 36.1055 81.9367 36.1148H38.0009C36.9001 36.1276 35.8328 36.4954 34.9577 37.1633L57.3347 51.2289C58.1221 51.7294 59.0358 51.9952 59.9688 51.9952C60.9018 51.9952 61.8155 51.7294 62.6029 51.2289L84.98 37.0866ZM91.9361 41.2295V67.724C92.0214 68.0985 92.0213 68.4874 91.9357 68.8619C91.8502 69.2364 91.6813 69.5868 91.4418 69.887C91.2023 70.1873 90.8981 70.4298 90.552 70.5964C90.2059 70.7631 89.8267 70.8496 89.4426 70.8496C89.0585 70.8496 88.6793 70.7631 88.3332 70.5964C87.9871 70.4298 87.683 70.1873 87.4434 69.887C87.2039 69.5868 87.0351 69.2364 86.9495 68.8619C86.8639 68.4874 86.8638 68.0985 86.9492 67.724V41.8177L65.237 55.4485C63.6622 56.4496 61.8349 56.9812 59.9688 56.9812C58.1028 56.9812 56.2754 56.4496 54.7006 55.4485L33.1164 41.8177V70.2558C33.1164 70.9274 33.2487 71.5925 33.5057 72.2131C33.7627 72.8336 34.1395 73.3975 34.6144 73.8724C35.0894 74.3474 35.6532 74.7241 36.2738 74.9812C36.8943 75.2382 37.5594 75.3705 38.2311 75.3705H60.9406C61.6189 75.3705 62.2694 75.64 62.749 76.1196C63.2286 76.5992 63.498 77.2496 63.498 77.9279C63.498 78.6062 63.2286 79.2566 62.749 79.7362C62.2694 80.2158 61.6189 80.4853 60.9406 80.4853H38.0009C36.6702 80.4787 35.354 80.2079 34.1288 79.6887C32.9035 79.1694 31.7935 78.412 30.8633 77.4604C29.9331 76.5087 29.2011 75.3818 28.7099 74.1451C28.2186 72.9083 27.9779 71.5863 28.0016 70.2558V41.2295C27.9779 39.899 28.2186 38.577 28.7099 37.3402C29.2011 36.1034 29.9331 34.9765 30.8633 34.0249C31.7935 33.0733 32.9035 32.3159 34.1288 31.7966C35.354 31.2773 36.6702 31.0066 38.0009 31H81.9367C83.2675 31.0066 84.5836 31.2773 85.8089 31.7966C87.0342 32.3159 88.1441 33.0733 89.0743 34.0249C90.0046 34.9765 90.7365 36.1034 91.2278 37.3402C91.719 38.577 91.9598 39.899 91.9361 41.2295V41.2295ZM91.9361 77.9535C91.9361 78.6317 91.6666 79.2822 91.187 79.7618C90.7074 80.2414 90.0569 80.5108 89.3787 80.5108H82.5761V87.2623C82.5761 87.9406 82.3066 88.5911 81.827 89.0707C81.3474 89.5503 80.6969 89.8197 80.0187 89.8197C79.3404 89.8197 78.6899 89.5503 78.2103 89.0707C77.7307 88.5911 77.4613 87.9406 77.4613 87.2623V80.3574H70.7098C70.0316 80.3574 69.3811 80.088 68.9015 79.6084C68.4219 79.1288 68.1524 78.4783 68.1524 77.8C68.1524 77.1218 68.4219 76.4713 68.9015 75.9917C69.3811 75.5121 70.0316 75.2426 70.7098 75.2426H77.5636V68.3633C77.5636 67.685 77.833 67.0346 78.3126 66.555C78.7922 66.0754 79.4427 65.8059 80.121 65.8059C80.7992 65.8059 81.4497 66.0754 81.9293 66.555C82.4089 67.0346 82.6784 67.685 82.6784 68.3633V75.2938H89.3787C90.0525 75.2938 90.6992 75.5597 91.178 76.0338C91.6569 76.5079 91.9293 77.1518 91.9361 77.8256V77.9535Z" fill="white"/>
</svg>
