<svg width="16" height="16" viewBox="0 0 16 16" fill="none" xmlns="http://www.w3.org/2000/svg">
<path fill-rule="evenodd" clip-rule="evenodd" d="M2.20209 0.905419C2.19747 0.850891 2.18216 0.797808 2.15702 0.7492C2.13188 0.700592 2.09742 0.657411 2.05559 0.622124C2.01377 0.586837 1.9654 0.560135 1.91325 0.543542C1.86111 0.526949 1.8062 0.520791 1.75167 0.525418L0.921258 0.596252C0.811214 0.605584 0.709375 0.658224 0.638121 0.742603C0.566868 0.826982 0.532028 0.936198 0.541258 1.04625L0.678342 2.65834C0.618398 2.70013 0.570502 2.75696 0.53946 2.82312C0.508418 2.88928 0.495321 2.96244 0.501485 3.03525C0.507648 3.10807 0.532854 3.17799 0.574573 3.23799C0.616293 3.29798 0.673059 3.34596 0.739175 3.37709L0.885008 5.09459C0.889628 5.14911 0.904943 5.2022 0.93008 5.2508C0.955216 5.29941 0.989682 5.34259 1.03151 5.37788C1.07333 5.41317 1.1217 5.43987 1.17385 5.45646C1.22599 5.47305 1.2809 5.47921 1.33543 5.47458L2.16584 5.40375C2.27589 5.39442 2.37772 5.34178 2.44898 5.2574C2.52023 5.17302 2.55507 5.06381 2.54584 4.95375L2.39168 3.14292C2.60418 3.105 2.81251 3.06875 3.01834 3.03459C3.06209 3.72209 3.18918 4.88833 3.42334 5.98667C3.57334 6.68667 3.77834 7.4175 4.06334 7.9925C4.20501 8.27917 4.38918 8.5725 4.63293 8.80417C4.84834 9.00917 5.14001 9.19042 5.50001 9.23792V11.0429C5.45472 11.0267 5.40944 11.0104 5.36418 10.9942L5.27126 10.9608C4.85251 10.8108 4.42709 10.6583 4.10209 10.5763C3.94459 10.5363 3.70584 10.4842 3.47168 10.505C3.27178 10.5203 3.08107 10.5952 2.92418 10.72C2.81695 10.8074 2.73068 10.9177 2.67169 11.0428C2.61271 11.1679 2.58252 11.3046 2.58334 11.4429C2.58334 11.7858 2.70043 12.6679 2.80001 13.3725C2.86141 13.8074 2.9253 14.242 2.99167 14.6763L3.00501 14.7633L3.00876 14.7863L3.00959 14.7921V14.7942L3.83334 14.6667L3.01001 14.7946C3.04194 14.9965 3.14697 15.1796 3.30511 15.3091C3.46325 15.4386 3.66348 15.5055 3.86771 15.497C4.07195 15.4885 4.26594 15.4053 4.41279 15.2631C4.55964 15.1209 4.64911 14.9297 4.66418 14.7258L4.81834 12.5692C5.28126 12.735 5.82168 12.9263 6.35543 13.0763C6.88584 13.2254 7.46793 13.3513 8.00001 13.3513C8.53209 13.3513 9.11418 13.2254 9.64459 13.0763C10.1738 12.9275 10.7096 12.7379 11.1696 12.5733L11.3358 14.7304C11.3517 14.9341 11.4417 15.1248 11.5889 15.2664C11.7362 15.4081 11.9303 15.4907 12.1344 15.4986C12.3385 15.5065 12.5384 15.4392 12.6961 15.3094C12.8539 15.1796 12.9585 14.9964 12.99 14.7946L12.9904 14.7921L12.9913 14.7863L12.995 14.7633L13.0083 14.6758C13.075 14.2418 13.1389 13.8074 13.2 13.3725C13.2996 12.6679 13.4167 11.7858 13.4167 11.4433C13.4167 11.1975 13.3208 10.9192 13.0758 10.72C12.919 10.5952 12.7282 10.5203 12.5283 10.505C12.2942 10.4842 12.0554 10.5363 11.8975 10.5758C11.5725 10.6583 11.1475 10.8108 10.7288 10.9608L10.6358 10.9942L10.5 11.0429V9.24C11.2875 9.15209 11.7646 8.51375 12.0275 8.00584C12.3325 7.4175 12.5317 6.67375 12.6667 5.97C12.8783 4.87042 12.9617 3.71584 12.9888 3.04C13.1921 3.07334 13.3983 3.10875 13.6079 3.14584L13.4538 4.95375C13.4445 5.06387 13.4794 5.17315 13.5508 5.25754C13.6221 5.34193 13.7241 5.39452 13.8342 5.40375L14.6642 5.47458C14.7187 5.47921 14.7736 5.47305 14.8258 5.45646C14.8779 5.43987 14.9263 5.41317 14.9681 5.37788C15.0099 5.34259 15.0444 5.29941 15.0695 5.2508C15.0947 5.2022 15.11 5.14911 15.1146 5.09459L15.2604 3.37709C15.3268 3.34618 15.3838 3.29832 15.4257 3.23834C15.4676 3.17835 15.493 3.10836 15.4992 3.03545C15.5054 2.96253 15.4923 2.88926 15.4611 2.82305C15.4299 2.75683 15.3818 2.70002 15.3217 2.65834L15.4588 1.04625C15.468 0.936198 15.4331 0.826982 15.3619 0.742603C15.2906 0.658224 15.1888 0.605584 15.0788 0.596252L14.2483 0.525418C14.1383 0.516188 14.0291 0.551028 13.9447 0.622282C13.8603 0.693535 13.8077 0.795374 13.7983 0.905419L13.6788 2.31209C13.4184 2.26629 13.1577 2.22254 12.8967 2.18084C12.8344 2.06789 12.7467 1.97095 12.6406 1.89763C12.5345 1.82432 12.4128 1.77663 12.2852 1.75834C12.1575 1.74004 12.0273 1.75163 11.9049 1.79219C11.7824 1.83275 11.6711 1.90118 11.5796 1.99209C9.04751 1.6725 6.90376 1.67292 4.41584 1.98792C4.32435 1.89841 4.21346 1.83117 4.09179 1.79143C3.97011 1.75169 3.84092 1.74052 3.71423 1.75877C3.58754 1.77703 3.46675 1.82422 3.36125 1.89669C3.25574 1.96916 3.16834 2.06497 3.10584 2.17667C2.84918 2.2175 2.58793 2.26167 2.32126 2.30917L2.20209 0.905419ZM5.05334 5.63875C4.85945 4.70104 4.73247 3.75073 4.67334 2.795C6.97793 2.51459 8.98376 2.51459 11.3296 2.80084C11.3138 3.35584 11.2429 4.54834 11.03 5.655C10.905 6.30542 10.7425 6.86375 10.5479 7.23917C10.4154 7.49459 10.3246 7.56625 10.2946 7.58334H5.76793C5.71959 7.53292 5.64501 7.43084 5.55668 7.2525C5.36418 6.86375 5.19334 6.29292 5.05334 5.63875ZM9.87501 4.875C9.87501 5.37228 9.67746 5.8492 9.32583 6.20083C8.9742 6.55246 8.49729 6.75 8.00001 6.75C7.50273 6.75 7.02581 6.55246 6.67418 6.20083C6.32255 5.8492 6.12501 5.37228 6.12501 4.875C6.12501 4.37772 6.32255 3.90081 6.67418 3.54918C7.02581 3.19755 7.50273 3 8.00001 3C8.49729 3 8.9742 3.19755 9.32583 3.54918C9.67746 3.90081 9.87501 4.37772 9.87501 4.875Z" fill="black"/>
</svg>
