<svg width="13" height="20" viewBox="0 0 13 20" fill="none" xmlns="http://www.w3.org/2000/svg">
<path d="M5.10714 17.2727H7.89286C8.01667 17.2727 8.125 17.2273 8.21786 17.1364C8.31071 17.0455 8.35714 16.9394 8.35714 16.8182C8.35714 16.697 8.31071 16.5909 8.21786 16.5C8.125 16.4091 8.01667 16.3636 7.89286 16.3636H5.10714C4.98333 16.3636 4.875 16.4091 4.78214 16.5C4.68929 16.5909 4.64286 16.697 4.64286 16.8182C4.64286 16.9394 4.68929 17.0455 4.78214 17.1364C4.875 17.2273 4.98333 17.2727 5.10714 17.2727ZM1.85714 20C1.34643 20 0.909381 19.8221 0.546 19.4664C0.182 19.11 0 18.6818 0 18.1818V1.81818C0 1.31818 0.182 0.89 0.546 0.533636C0.909381 0.177879 1.34643 0 1.85714 0H11.1429C11.6536 0 12.0909 0.177879 12.4549 0.533636C12.8183 0.89 13 1.31818 13 1.81818V18.1818C13 18.6818 12.8183 19.11 12.4549 19.4664C12.0909 19.8221 11.6536 20 11.1429 20H1.85714ZM1.85714 13.6364H11.1429V4.54545H1.85714V13.6364Z" fill="black"/>
</svg>
