<svg width="45" height="45" viewBox="0 0 45 45" fill="none" xmlns="http://www.w3.org/2000/svg">
<path d="M40.6295 0.000708209H3.47952C2.56187 0.000708209 1.6818 0.36526 1.03293 1.01414C0.384053 1.66301 0.0195312 2.54308 0.0195312 3.46073V40.6307C0.0195313 41.5484 0.384053 42.4284 1.03293 43.0773C1.6818 43.7262 2.56187 44.0907 3.47952 44.0907H21.8595C21.8595 43.7407 21.8595 43.3907 21.8595 43.0307C21.8595 40.364 21.8595 37.6974 21.8595 35.0307C21.8595 34.0307 21.8595 33.0307 21.8595 31.9807C21.8595 30.5007 21.8595 29.0307 21.8595 27.5507C21.8595 27.3307 21.8595 27.1607 21.5695 27.1307C21.2795 27.1007 21.1595 27.1307 20.9495 27.1307H17.2995C16.8995 27.1307 16.7595 27.0107 16.7595 26.6107C16.7595 24.6107 16.7595 22.6107 16.7595 20.6107C16.7595 20.2607 16.8795 20.1807 17.1995 20.1907H21.1995C21.8595 20.1907 21.8795 20.1907 21.8795 19.5407C21.8708 18.04 21.9577 16.5404 22.1395 15.0507C22.2764 14.1304 22.4803 13.2214 22.7495 12.3307C23.12 11.3597 23.5612 10.4172 24.0695 9.51072C24.7157 8.32682 25.7303 7.38593 26.9595 6.83073C28.6805 6.03935 30.5458 5.61046 32.4395 5.57072H33.7395C34.7395 5.57072 35.6795 5.57072 36.6495 5.57072C36.8695 5.57072 37.0695 5.66071 37.0695 5.97071C37.0695 7.97071 37.0695 10.0207 37.0695 12.0507C37.0695 12.3007 36.9395 12.4607 36.6295 12.4407C36.0295 12.4407 35.4195 12.3707 34.8195 12.3707C33.5831 12.2867 32.3476 12.5463 31.2495 13.1207C30.8834 13.3072 30.5585 13.5652 30.294 13.8796C30.0294 14.1939 29.8307 14.5582 29.7095 14.9507C29.5429 15.6774 29.4358 16.4166 29.3895 17.1607C29.3195 17.9907 29.3295 18.8307 29.3095 19.6607C29.3095 20.1207 29.3895 20.2107 29.8395 20.2107H36.3695C36.9595 20.2107 37.0096 20.2807 37.0096 20.8707V27.1007H29.8395C29.5295 27.1007 29.3195 27.1707 29.3095 27.5207C29.2995 27.8707 29.2595 27.9407 29.2595 28.1407C29.2595 28.9707 29.2595 29.7907 29.2595 30.6107C29.2595 31.4307 29.2595 32.0807 29.2595 32.8207C29.2595 33.5607 29.2595 34.2807 29.2595 35.0107C29.2595 35.7407 29.2595 36.2607 29.2595 36.8907C29.2595 37.5207 29.2595 38.0907 29.2595 38.7007C29.2595 39.5107 29.2595 40.3107 29.2095 41.1207C29.2095 42.1207 29.2095 43.1207 29.2095 44.0707H40.6995C41.1539 44.0707 41.6038 43.9812 42.0236 43.8074C42.4434 43.6335 42.8248 43.3786 43.1461 43.0573C43.4674 42.736 43.7223 42.3546 43.8961 41.9348C44.07 41.515 44.1595 41.0651 44.1595 40.6107V3.46073C44.1596 3.00041 44.0679 2.54469 43.8896 2.12028C43.7114 1.69586 43.4502 1.31127 43.1215 0.989051C42.7927 0.666828 42.403 0.413427 41.9751 0.24372C41.5472 0.0740128 41.0898 -0.00860472 40.6295 0.000708209V0.000708209Z" fill="white"/>
</svg>
