<svg width="487" height="123" viewBox="0 0 487 123" fill="none" xmlns="http://www.w3.org/2000/svg">
<path d="M208.125 113.319C208.174 114.033 208.071 114.749 207.822 115.42C207.574 116.091 207.185 116.702 206.684 117.211C206.182 117.721 205.577 118.119 204.91 118.378C204.243 118.637 203.529 118.752 202.814 118.714C202.088 118.742 201.366 118.592 200.711 118.278C200.056 117.963 199.487 117.494 199.054 116.91V118.596H197.233V103.81H199.139V109.61C199.576 109.059 200.136 108.62 200.775 108.327C201.413 108.034 202.112 107.896 202.814 107.924C203.529 107.886 204.243 108.001 204.91 108.26C205.577 108.519 206.182 108.917 206.684 109.426C207.185 109.936 207.574 110.547 207.822 111.218C208.071 111.889 208.174 112.605 208.125 113.319ZM206.203 113.319C206.167 112.628 205.929 111.964 205.52 111.407C205.11 110.85 204.546 110.425 203.898 110.184C203.249 109.944 202.545 109.899 201.871 110.055C201.197 110.21 200.584 110.559 200.106 111.059C199.629 111.56 199.308 112.189 199.184 112.869C199.06 113.549 199.138 114.251 199.408 114.887C199.678 115.524 200.128 116.067 200.704 116.451C201.279 116.834 201.954 117.041 202.646 117.045C203.131 117.058 203.613 116.969 204.062 116.785C204.511 116.6 204.916 116.323 205.251 115.972C205.587 115.621 205.844 115.203 206.008 114.746C206.172 114.289 206.239 113.803 206.203 113.319Z" fill="white"/>
<path d="M220.096 108.058L215.038 119.642C214.11 121.867 212.896 122.558 211.278 122.558C210.287 122.584 209.324 122.235 208.58 121.581L209.389 120.147C209.892 120.645 210.571 120.924 211.278 120.923C212.205 120.923 212.778 120.518 213.284 119.237L213.621 118.495L208.985 107.991H210.957L214.633 116.421L218.275 107.991L220.096 108.058Z" fill="white"/>
<path d="M236.805 118.579L233.804 114.314H232.927H229.555V118.546H227.565V104.653H232.994C236.603 104.653 238.794 106.474 238.794 109.492C238.846 110.469 238.571 111.435 238.012 112.238C237.453 113.041 236.643 113.635 235.709 113.926L239.081 118.579H236.805ZM236.805 109.525C236.805 107.536 235.473 106.406 232.927 106.406H229.555V112.661H232.927C235.406 112.661 236.738 111.515 236.738 109.525H236.805Z" fill="white"/>
<path d="M251.136 113.926H242.605C242.723 114.831 243.185 115.656 243.894 116.23C244.603 116.804 245.506 117.084 246.416 117.011C246.984 117.031 247.55 116.927 248.074 116.706C248.599 116.484 249.068 116.151 249.45 115.73L250.513 116.961C249.735 117.752 248.745 118.301 247.662 118.541C246.579 118.781 245.45 118.702 244.411 118.313C243.373 117.924 242.469 117.242 241.81 116.349C241.152 115.457 240.766 114.392 240.7 113.285C240.672 112.581 240.789 111.878 241.043 111.221C241.297 110.563 241.684 109.965 242.178 109.462C242.673 108.96 243.265 108.564 243.918 108.299C244.572 108.035 245.272 107.907 245.977 107.924C246.686 107.9 247.393 108.027 248.05 108.294C248.707 108.562 249.301 108.965 249.792 109.477C250.284 109.989 250.662 110.599 250.902 111.266C251.142 111.934 251.239 112.645 251.187 113.353C251.185 113.545 251.169 113.736 251.136 113.926ZM242.605 112.56H249.349C249.349 111.666 248.994 110.808 248.362 110.176C247.729 109.543 246.871 109.188 245.977 109.188C245.083 109.188 244.225 109.543 243.593 110.176C242.96 110.808 242.605 111.666 242.605 112.56Z" fill="white"/>
<path d="M262.163 112.24V118.596H260.359V117.214C259.957 117.736 259.429 118.149 258.825 118.415C258.221 118.68 257.56 118.789 256.903 118.731C254.525 118.731 253.008 117.45 253.008 115.629C253.008 113.808 254.104 112.543 257.24 112.543H260.258V112.24C260.258 110.554 259.33 109.694 257.442 109.694C256.222 109.674 255.032 110.073 254.07 110.824L253.278 109.39C254.537 108.468 256.068 107.993 257.628 108.042C260.544 107.957 262.163 109.357 262.163 112.24ZM260.258 115.393V113.926H257.324C255.436 113.926 254.896 114.668 254.896 115.612C254.896 116.556 255.773 117.298 257.223 117.298C257.867 117.34 258.508 117.176 259.053 116.831C259.598 116.485 260.02 115.976 260.258 115.376V115.393Z" fill="white"/>
<path d="M265.703 103.81H267.608V118.546H265.703V103.81Z" fill="white"/>
<path d="M286.965 116.86V118.546H276.849V104.653H286.661V106.339H278.838V110.621H285.818V112.307H278.838V116.792L286.965 116.86Z" fill="white"/>
<path d="M288.566 117.467L289.375 115.966C290.473 116.683 291.756 117.063 293.068 117.062C294.754 117.062 295.563 116.523 295.563 115.629C295.563 113.268 288.903 115.309 288.903 111.127C288.903 109.239 290.589 107.957 293.304 107.957C294.642 107.932 295.963 108.264 297.131 108.918L296.322 110.419C295.41 109.858 294.357 109.572 293.287 109.593C291.601 109.593 290.792 110.2 290.792 111.043C290.792 113.521 297.536 111.498 297.536 115.595C297.536 117.5 295.85 118.714 292.983 118.714C291.417 118.768 289.873 118.332 288.566 117.467V117.467Z" fill="white"/>
<path d="M305.781 117.972C305.117 118.474 304.303 118.736 303.471 118.714C303.014 118.772 302.551 118.724 302.115 118.575C301.68 118.426 301.284 118.179 300.959 117.854C300.634 117.529 300.387 117.133 300.238 116.698C300.089 116.262 300.041 115.799 300.099 115.342V109.559H298.312V107.991H300.099V105.681H302.004V107.991H305.022V109.559H302.004V115.258C301.973 115.49 301.994 115.727 302.067 115.95C302.139 116.173 302.261 116.377 302.423 116.547C302.584 116.717 302.782 116.848 303.002 116.932C303.221 117.015 303.456 117.048 303.69 117.028C304.225 117.032 304.746 116.86 305.174 116.539L305.781 117.972Z" fill="white"/>
<path d="M316.42 112.24V118.596H314.616V117.214C314.213 117.736 313.686 118.149 313.082 118.415C312.478 118.68 311.817 118.789 311.159 118.731C308.782 118.731 307.265 117.45 307.265 115.629C307.265 113.808 308.361 112.543 311.497 112.543H314.515V112.24C314.515 110.554 313.587 109.694 311.699 109.694C310.479 109.674 309.289 110.073 308.327 110.824L307.534 109.39C308.793 108.468 310.325 107.993 311.884 108.042C314.801 107.957 316.42 109.357 316.42 112.24ZM314.515 115.393V113.926H311.581C309.693 113.926 309.153 114.668 309.153 115.612C309.153 116.556 310.03 117.298 311.48 117.298C312.124 117.34 312.765 117.176 313.31 116.831C313.855 116.485 314.277 115.976 314.515 115.376V115.393Z" fill="white"/>
<path d="M325.878 117.972C325.216 118.476 324.401 118.738 323.568 118.714C323.111 118.775 322.646 118.73 322.209 118.582C321.772 118.434 321.375 118.188 321.049 117.862C320.723 117.535 320.476 117.139 320.328 116.702C320.18 116.265 320.135 115.799 320.196 115.342V109.559H318.409V107.991H320.196V105.681H322.102V107.991H325.12V109.559H322.102V115.258C322.067 115.491 322.086 115.729 322.158 115.954C322.229 116.178 322.35 116.384 322.513 116.554C322.675 116.725 322.875 116.856 323.096 116.938C323.316 117.021 323.553 117.051 323.788 117.028C324.327 117.029 324.853 116.858 325.288 116.539L325.878 117.972Z" fill="white"/>
<path d="M337.663 113.926H329.115C329.237 114.829 329.699 115.651 330.408 116.225C331.116 116.798 332.017 117.08 332.925 117.011C333.496 117.032 334.065 116.927 334.592 116.706C335.119 116.485 335.592 116.152 335.977 115.73L337.022 116.961C336.245 117.752 335.255 118.301 334.172 118.541C333.089 118.781 331.96 118.702 330.921 118.313C329.882 117.924 328.979 117.242 328.32 116.349C327.661 115.457 327.276 114.392 327.21 113.285C327.182 112.581 327.299 111.878 327.553 111.221C327.807 110.563 328.193 109.965 328.688 109.462C329.182 108.96 329.775 108.564 330.428 108.299C331.081 108.035 331.782 107.907 332.487 107.924C333.196 107.9 333.902 108.027 334.56 108.294C335.217 108.562 335.811 108.965 336.302 109.477C336.793 109.989 337.172 110.599 337.412 111.266C337.652 111.934 337.749 112.645 337.697 113.353C337.697 113.538 337.68 113.774 337.663 113.926ZM329.115 112.56H335.859C335.859 111.666 335.504 110.808 334.871 110.176C334.239 109.543 333.381 109.188 332.487 109.188C331.593 109.188 330.735 109.543 330.102 110.176C329.47 110.808 329.115 111.666 329.115 112.56Z" fill="white"/>
<path d="M354.828 115.106H347.443L345.909 118.58H343.869L350.158 104.687H352.13L358.436 118.58H356.345L354.828 115.106ZM354.137 113.521L351.135 106.777L348.134 113.521H354.137Z" fill="white"/>
<path d="M370.221 112.527V118.579H368.316V112.746C368.316 110.689 367.287 109.677 365.467 109.677C365.002 109.633 364.534 109.693 364.097 109.855C363.659 110.016 363.264 110.274 362.94 110.61C362.616 110.945 362.371 111.349 362.225 111.792C362.079 112.235 362.034 112.705 362.094 113.167V118.579H360.172V108.059H362.01V109.643C362.463 109.081 363.043 108.634 363.703 108.341C364.363 108.048 365.083 107.916 365.804 107.957C366.411 107.902 367.023 107.984 367.594 108.196C368.166 108.409 368.682 108.747 369.106 109.185C369.53 109.623 369.85 110.151 370.043 110.729C370.236 111.307 370.297 111.922 370.221 112.527Z" fill="white"/>
<path d="M382.108 112.24V118.596H380.287V117.214C379.886 117.738 379.358 118.152 378.754 118.417C378.15 118.682 377.488 118.79 376.831 118.731C374.453 118.731 372.953 117.45 372.953 115.629C372.953 113.808 374.032 112.543 377.168 112.543H380.203V112.24C380.203 110.554 379.258 109.694 377.37 109.694C376.15 109.677 374.961 110.076 373.998 110.824L373.206 109.39C374.465 108.468 375.996 107.993 377.556 108.042C380.472 107.957 382.108 109.357 382.108 112.24ZM380.203 115.393V113.926H377.336C375.448 113.926 374.908 114.668 374.908 115.612C374.908 116.556 375.785 117.298 377.235 117.298C377.867 117.32 378.491 117.148 379.022 116.804C379.552 116.46 379.965 115.962 380.203 115.376V115.393Z" fill="white"/>
<path d="M385.632 103.81H387.554V118.546H385.632V103.81Z" fill="white"/>
<path d="M400.502 108.058L395.444 119.642C394.517 121.867 393.303 122.558 391.684 122.558C390.694 122.584 389.731 122.235 388.987 121.581L389.796 120.147C390.299 120.645 390.977 120.924 391.684 120.923C392.595 120.923 393.185 120.518 393.691 119.237L394.028 118.495L389.391 107.991H391.364L395.04 116.421L398.682 107.991L400.502 108.058Z" fill="white"/>
<path d="M408.208 117.972C407.545 118.476 406.73 118.738 405.898 118.714C405.441 118.772 404.978 118.724 404.542 118.575C404.107 118.426 403.712 118.179 403.386 117.854C403.061 117.529 402.814 117.133 402.665 116.698C402.516 116.262 402.468 115.799 402.526 115.342V109.559H400.772V107.991H402.627V105.681H404.532V107.991H407.55V109.559H404.532V115.258C404.501 115.49 404.523 115.727 404.595 115.95C404.668 116.173 404.789 116.377 404.951 116.547C405.113 116.717 405.311 116.848 405.53 116.932C405.749 117.015 405.985 117.048 406.218 117.028C406.758 117.029 407.284 116.858 407.719 116.539L408.208 117.972Z" fill="white"/>
<path d="M410.18 104.804C410.166 104.545 410.231 104.287 410.366 104.064C410.501 103.841 410.7 103.665 410.937 103.556C411.173 103.448 411.437 103.414 411.694 103.457C411.951 103.501 412.188 103.62 412.376 103.801C412.564 103.981 412.693 104.214 412.747 104.468C412.8 104.723 412.777 104.988 412.678 105.229C412.579 105.47 412.411 105.675 412.194 105.819C411.977 105.963 411.722 106.038 411.461 106.035C411.295 106.042 411.13 106.015 410.975 105.957C410.82 105.898 410.678 105.808 410.558 105.693C410.438 105.578 410.343 105.44 410.278 105.287C410.213 105.135 410.18 104.97 410.18 104.804V104.804ZM410.517 108.058H412.422V118.579H410.517V108.058Z" fill="white"/>
<path d="M415.086 113.319C415.069 112.594 415.202 111.874 415.477 111.203C415.752 110.532 416.163 109.926 416.684 109.422C417.206 108.918 417.826 108.528 418.505 108.276C419.185 108.024 419.91 107.915 420.634 107.957C421.486 107.907 422.336 108.09 423.093 108.484C423.85 108.879 424.486 109.472 424.933 110.2L423.483 111.144C423.18 110.663 422.755 110.269 422.252 110.003C421.749 109.736 421.185 109.607 420.617 109.627C419.633 109.627 418.689 110.017 417.994 110.713C417.298 111.409 416.907 112.352 416.907 113.336C416.907 114.32 417.298 115.263 417.994 115.959C418.689 116.654 419.633 117.045 420.617 117.045C421.184 117.054 421.743 116.919 422.244 116.654C422.745 116.388 423.171 116.001 423.483 115.528L424.933 116.438C424.488 117.17 423.853 117.767 423.096 118.168C422.34 118.568 421.489 118.757 420.634 118.714C419.908 118.752 419.183 118.639 418.503 118.383C417.823 118.127 417.204 117.733 416.683 117.227C416.162 116.721 415.752 116.112 415.477 115.44C415.202 114.767 415.069 114.045 415.086 113.319Z" fill="white"/>
<path d="M426.063 117.467L426.855 115.966C427.954 116.682 429.237 117.063 430.548 117.062C432.318 117.062 433.06 116.522 433.06 115.629C433.06 113.268 426.4 115.308 426.4 111.127C426.4 109.239 428.086 107.957 430.801 107.957C432.146 107.911 433.479 108.225 434.662 108.868L433.852 110.368C432.936 109.805 431.876 109.519 430.801 109.542C429.115 109.542 428.322 110.149 428.322 110.992C428.322 113.471 435.066 111.447 435.066 115.544C435.066 117.45 433.38 118.664 430.514 118.664C428.942 118.739 427.385 118.321 426.063 117.467V117.467Z" fill="white"/>
<path d="M90.3556 24.0598H70.4772L23.9761 70.5608V90.4224C23.9739 90.9699 24.0801 91.5125 24.2886 92.0188C24.4971 92.525 24.8037 92.985 25.1909 93.3722C25.5781 93.7593 26.038 94.066 26.5443 94.2745C27.0506 94.483 27.5931 94.5892 28.1406 94.5869H90.3387C91.4432 94.5869 92.5025 94.1482 93.2835 93.3672C94.0645 92.5862 94.5032 91.5269 94.5032 90.4224V28.2243C94.4988 27.1212 94.0586 26.0645 93.2786 25.2845C92.4986 24.5044 91.4419 24.0643 90.3387 24.0598" fill="#00ACD8"/>
<path d="M23.9924 28.2244C23.9968 27.1213 24.437 26.0646 25.2171 25.2845C25.9971 24.5045 27.0538 24.0643 28.1569 24.0599H70.4766L87.337 7.19947C87.9218 6.61701 88.3203 5.87391 88.4819 5.06454C88.6436 4.25517 88.5611 3.41602 88.2449 2.65362C87.9288 1.89121 87.3932 1.23994 86.7062 0.782494C86.0192 0.325049 85.2118 0.0820582 84.3864 0.0843669H4.16453C3.06139 0.0888061 2.00471 0.528982 1.22467 1.30902C0.444628 2.08906 0.00443922 3.14576 0 4.24889V84.555C0.00102524 85.3769 0.245225 86.1802 0.701844 86.8636C1.15846 87.5469 1.80709 88.0799 2.56603 88.3954C3.32497 88.7109 4.16028 88.7947 4.96678 88.6364C5.77328 88.478 6.51491 88.0846 7.09825 87.5056L23.9587 70.6452L23.9924 28.2244Z" fill="white"/>
<path d="M179.462 65.6208C179.369 64.7716 179.234 63.9275 179.057 63.0918L178.956 62.6871C178.777 61.8529 178.546 61.0308 178.265 60.2255L178.164 59.922C177.86 59.079 177.523 58.2359 177.152 57.4266L169.717 64.8453C169.852 65.429 169.953 66.0201 170.02 66.6156C170.02 66.6156 170.02 66.7167 170.02 66.7673C170.088 67.4057 170.122 68.0474 170.121 68.6894C170.174 72.4857 168.844 76.1715 166.378 79.0586C166.013 79.4949 165.625 79.9114 165.215 80.3062C164.42 81.1056 163.557 81.8334 162.635 82.4812C161.333 83.3803 159.9 84.0741 158.386 84.5382C157.364 84.8454 156.313 85.0487 155.25 85.1452C154.711 85.1452 154.154 85.2295 153.564 85.2295H149.299L140.093 94.4353C140.717 94.5196 141.374 94.587 142.032 94.6376H142.133C142.807 94.6376 143.482 94.6376 144.173 94.6376H153.564C155.329 94.6455 157.09 94.4874 158.825 94.1655C159.927 93.9562 161.014 93.6746 162.079 93.3225C162.601 93.137 163.124 92.9515 163.63 92.7324C169.03 90.3678 173.507 86.2993 176.376 81.1493C177.44 79.2627 178.25 77.2447 178.787 75.147C179.332 73.0092 179.604 70.8111 179.597 68.6051C179.597 67.6981 179.546 66.7919 179.445 65.8906C179.455 65.801 179.461 65.711 179.462 65.6208V65.6208Z" fill="#00ACD8"/>
<path d="M250.883 7.70528C248.432 5.22356 245.505 3.26313 242.277 1.94188C239.049 0.620624 235.588 -0.0341634 232.1 0.0169364H230.414C230.725 0.0410552 231.023 0.15086 231.275 0.334201C231.528 0.517542 231.724 0.76723 231.843 1.05548C231.962 1.34373 231.998 1.65927 231.948 1.96704C231.899 2.27481 231.764 2.56277 231.561 2.7989L224.817 9.54306H232.067C234.342 9.50669 236.6 9.93673 238.702 10.8067C240.805 11.6766 242.706 12.968 244.29 14.6012C245.929 16.1599 247.225 18.0428 248.096 20.13C248.967 22.2171 249.393 24.4627 249.349 26.7238C249.326 31.3049 247.497 35.6921 244.257 38.9314C241.018 42.1708 236.631 44.0005 232.05 44.0226H222.81C218.339 44.0095 213.943 45.1724 210.064 47.3947C208.954 48.0181 207.899 48.7344 206.911 49.536V27.6174L200.167 34.3616C199.931 34.5652 199.643 34.6993 199.335 34.7491C199.027 34.7989 198.712 34.7623 198.423 34.6435C198.135 34.5247 197.885 34.3284 197.702 34.0762C197.519 33.824 197.409 33.5259 197.385 33.2151V94.8399H207.046V69.5493C207.053 67.4342 207.478 65.3414 208.297 63.3911C209.116 61.4409 210.312 59.6718 211.817 58.1854C213.241 56.7176 214.952 55.5589 216.843 54.7815C218.735 54.0041 220.766 53.6246 222.81 53.6668H232.185C235.569 53.681 238.924 53.0397 242.065 51.7784C246.982 49.8056 251.218 46.4425 254.255 42.1005C257.414 37.621 259.073 32.2555 258.993 26.7744C258.975 23.2166 258.249 19.6981 256.856 16.424C255.464 13.15 253.433 10.1861 250.883 7.70528V7.70528Z" fill="#00ACD8"/>
<path d="M329.301 39.5209C331.426 35.6023 332.538 31.2152 332.538 26.7575C332.538 22.2999 331.426 17.9128 329.301 13.9942C323.77 4.75472 315.812 0.0675049 305.696 0.0675049H271.115V94.7219H280.625V69.3133C280.656 65.1185 282.345 61.1065 285.324 58.1529C288.303 55.1994 292.329 53.5442 296.524 53.5488H307.281C311.455 53.5752 315.451 55.2441 318.405 58.1943C321.358 61.1446 323.031 65.1389 323.062 69.3133V94.7219H332.571V69.3133C332.603 64.9908 331.485 60.7376 329.334 56.9883C327.392 53.5937 324.713 50.6783 321.494 48.4569C324.72 46.0867 327.385 43.0359 329.301 39.5209V39.5209ZM280.557 9.57676H305.696C307.969 9.5387 310.225 9.96805 312.325 10.8381C314.425 11.7083 316.323 13.0005 317.903 14.6349C319.541 16.1943 320.836 18.0773 321.707 20.1643C322.578 22.2513 323.005 24.4966 322.961 26.7575C322.939 31.3386 321.109 35.7258 317.87 38.9652C314.63 42.2045 310.243 44.0342 305.662 44.0563H296.406C291.935 44.0432 287.539 45.2061 283.659 47.4284C282.55 48.0518 281.495 48.7681 280.507 49.5697L280.557 9.57676Z" fill="#00ACD8"/>
<path d="M378.263 0.0675049C370.121 0.0941992 362.32 3.34162 356.565 9.10055C350.809 14.8595 347.566 22.662 347.543 30.8041V64.0022C347.543 72.1496 350.78 79.9633 356.541 85.7243C362.302 91.4854 370.116 94.7219 378.263 94.7219C386.411 94.7219 394.224 91.4854 399.985 85.7243C405.746 79.9633 408.983 72.1496 408.983 64.0022V30.8041C408.961 22.662 405.717 14.8595 399.962 9.10055C394.206 3.34162 386.405 0.0941992 378.263 0.0675049V0.0675049ZM378.263 85.2295C372.653 85.1852 367.287 82.9324 363.326 78.9592C359.365 74.9859 357.13 69.6123 357.103 64.0022V30.8041C357.103 25.1743 359.34 19.775 363.321 15.7941C367.302 11.8132 372.701 9.57676 378.331 9.57676C383.96 9.57676 389.36 11.8132 393.341 15.7941C397.321 19.775 399.558 25.1743 399.558 30.8041V64.0022C399.54 69.6414 397.29 75.0439 393.299 79.0282C389.308 83.0126 383.902 85.2543 378.263 85.2632V85.2295Z" fill="#00ACD8"/>
<path d="M478.971 7.70539C476.523 5.22494 473.599 3.26519 470.374 1.94394C467.149 0.622695 463.69 -0.0327464 460.206 0.0170423H425.541V94.6714H435.05V69.3808C435.057 67.2656 435.482 65.1728 436.301 63.2226C437.12 61.2724 438.316 59.5033 439.821 58.0169C441.248 56.5478 442.961 55.3885 444.856 54.611C446.75 53.8336 448.784 53.4548 450.831 53.4983H460.206C463.584 53.5107 466.934 52.8695 470.069 51.6099C474.989 49.6422 479.227 46.2781 482.259 41.932C485.426 37.4561 487.085 32.0881 486.997 26.6059C486.971 23.0819 486.249 19.5978 484.872 16.3541C483.494 13.1103 481.489 10.171 478.971 7.70539V7.70539ZM435.134 9.52629H460.29C462.562 9.49223 464.817 9.92343 466.916 10.7933C469.016 11.6632 470.915 12.9533 472.497 14.5844C474.135 16.1432 475.431 18.0261 476.302 20.1132C477.173 22.2004 477.6 24.446 477.555 26.7071C477.533 31.2853 475.705 35.6699 472.47 38.9088C469.234 42.1477 464.851 43.9793 460.273 44.0059H451.017C446.546 43.9951 442.151 45.1578 438.27 47.378C437.163 48.0056 436.109 48.7216 435.117 49.5192L435.134 9.52629Z" fill="#00ACD8"/>
<path d="M200.302 34.2436L207.046 27.4994V9.57679H224.935L231.679 2.83262C231.883 2.5965 232.017 2.30859 232.067 2.00081C232.116 1.69304 232.08 1.37746 231.961 1.08921C231.842 0.800953 231.646 0.551317 231.394 0.367976C231.141 0.184635 230.843 0.074778 230.533 0.0506592H199.088C198.641 0.0506592 198.212 0.22832 197.896 0.544514C197.579 0.860708 197.402 1.28954 197.402 1.7367V33.1308C197.413 33.462 197.521 33.7827 197.714 34.0526C197.906 34.3226 198.173 34.5299 198.483 34.6486C198.792 34.7674 199.13 34.7923 199.453 34.7203C199.777 34.6482 200.072 34.4824 200.302 34.2436Z" fill="white"/>
<path d="M140.144 94.4352L149.35 85.2295H144.292C139.934 85.143 135.778 83.3722 132.698 80.2884C129.617 77.2046 127.851 73.0475 127.769 68.6894C127.768 67.8926 127.836 67.0973 127.971 66.3121C128.498 62.5824 130.283 59.1445 133.029 56.5667C135.748 53.9993 139.265 52.4404 142.994 52.1493H154.796C158.97 52.5135 162.859 54.4189 165.705 57.494C167.648 59.5145 169.016 62.0175 169.667 64.744L177.102 57.4098C176.889 56.9377 176.653 56.4656 176.394 55.9935C174.492 52.5932 171.861 49.6566 168.689 47.3947C171.877 45.095 174.51 42.1107 176.394 38.6609C178.522 34.8074 179.639 30.4769 179.639 26.0746C179.639 21.6723 178.522 17.3419 176.394 13.4883C171.032 4.58603 163.378 0 153.632 0H144.241C134.496 0 126.841 4.51859 121.429 13.4883C119.316 17.3346 118.208 21.6523 118.208 26.0409C118.208 30.4296 119.316 34.7472 121.429 38.5935C123.357 42.0336 126.016 45.009 129.219 47.3103C126.017 49.5904 123.353 52.5424 121.412 55.9597C119.284 59.8327 118.181 64.1857 118.209 68.6051C118.176 73.0281 119.304 77.3825 121.48 81.2335C126.066 88.8375 132.338 93.2382 140.161 94.351L140.144 94.4352ZM127.903 28.2918C127.769 27.5746 127.701 26.8465 127.701 26.1168C127.728 21.7412 129.476 17.5521 132.569 14.4564C135.661 11.3608 139.849 9.60766 144.224 9.57671H153.616C157.991 9.60766 162.179 11.3608 165.271 14.4564C168.364 17.5521 170.112 21.7412 170.139 26.1168C170.184 28.1789 169.818 30.2291 169.062 32.1483C168.306 34.0675 167.177 35.8171 165.738 37.2952C162.9 40.381 159.007 42.2886 154.83 42.64H143.027C139.3 42.3549 135.784 40.8018 133.063 38.2394C130.248 35.6171 128.426 32.1031 127.903 28.2918V28.2918Z" fill="white"/>
</svg>
